<svg xmlns="http://www.w3.org/2000/svg" viewBox="0 0 126 146.44"><g id="Layer_2" data-name="Layer 2"><g id="Layer_1-2" data-name="Layer 1"><circle cx="63" cy="83.44" r="61.5" fill="#f33"/><path d="M63,23.44a60,60,0,1,1-60,60,60.07,60.07,0,0,1,60-60m0-3a63,63,0,1,0,63,63,63,63,0,0,0-63-63Z"/><circle cx="43.5" cy="75.94" r="6"/><path d="M43.5,70.44a5.5,5.5,0,1,1-5.5,5.5,5.51,5.51,0,0,1,5.5-5.5m0-1a6.5,6.5,0,1,0,6.5,6.5,6.5,6.5,0,0,0-6.5-6.5Z"/><circle cx="89.5" cy="81.94" r="6"/><path d="M89.5,76.44a5.5,5.5,0,1,1-5.5,5.5,5.51,5.51,0,0,1,5.5-5.5m0-1a6.5,6.5,0,1,0,6.5,6.5,6.5,6.5,0,0,0-6.5-6.5Z"/><polygon points="64 31.44 58.7 22.2 48.09 21.34 55.24 13.44 52.79 3.08 62.5 7.44 71.6 1.91 70.45 12.49 78.53 19.43 68.11 21.62 64 31.44" fill="#fc0" stroke="#000" stroke-miterlimit="10" stroke-width="2"/><line x1="48.5" y1="120.94" x2="63.5" y2="110.94" fill="none" stroke="#000" stroke-miterlimit="10" stroke-width="3"/><line x1="82.5" y1="120.94" x2="63.5" y2="110.94" fill="none" stroke="#000" stroke-miterlimit="10" stroke-width="3"/></g></g></svg>