<svg xmlns="http://www.w3.org/2000/svg" viewBox="0 0 126 141.64"><g id="Layer_2" data-name="Layer 2"><g id="Layer_1-2" data-name="Layer 1"><circle cx="63" cy="78.64" r="61.5" fill="#f63"/><path d="M63,18.64a60,60,0,1,1-60,60,60.07,60.07,0,0,1,60-60m0-3a63,63,0,1,0,63,63,63,63,0,0,0-63-63Z"/><circle cx="42.5" cy="72.14" r="6"/><path d="M42.5,66.64a5.5,5.5,0,1,1-5.5,5.5,5.51,5.51,0,0,1,5.5-5.5m0-1a6.5,6.5,0,1,0,6.5,6.5,6.51,6.51,0,0,0-6.5-6.5Z"/><circle cx="96.5" cy="78.14" r="6"/><path d="M96.5,72.64a5.5,5.5,0,1,1-5.5,5.5,5.51,5.51,0,0,1,5.5-5.5m0-1a6.5,6.5,0,1,0,6.5,6.5,6.51,6.51,0,0,0-6.5-6.5Z"/><polygon points="36 37.65 26.8 35.52 19.84 41.89 19.02 32.48 10.81 27.83 19.5 24.14 21.39 14.9 27.58 22.02 36.96 20.96 32.09 29.05 36 37.65" fill="#fc0" stroke="#000" stroke-miterlimit="10" stroke-width="2"/><polygon points="49 35.65 63.62 21.76 60.48 1.84 78.2 11.46 96.17 2.32 92.5 22.14 106.75 36.41 86.76 39.05 77.6 57.01 68.91 38.81 49 35.65" fill="#fc0" stroke="#000" stroke-miterlimit="10" stroke-width="2"/><line x1="42.5" y1="109.14" x2="83.5" y2="104.14" fill="none" stroke="#000" stroke-miterlimit="10" stroke-width="3"/></g></g></svg>