<svg xmlns="http://www.w3.org/2000/svg" viewBox="0 0 126 152.26"><g id="Layer_2" data-name="Layer 2"><g id="Layer_1-2" data-name="Layer 1"><circle cx="63" cy="89.26" r="61.5" fill="#ff6"/><path d="M63,29.26a60,60,0,1,1-60,60,60.07,60.07,0,0,1,60-60m0-3a63,63,0,1,0,63,63,63,63,0,0,0-63-63Z"/><circle cx="41.5" cy="75.76" r="6"/><path d="M41.5,70.26a5.5,5.5,0,1,1-5.5,5.5,5.5,5.5,0,0,1,5.5-5.5m0-1a6.5,6.5,0,1,0,6.5,6.5,6.5,6.5,0,0,0-6.5-6.5Z"/><circle cx="86.5" cy="75.76" r="6"/><path d="M86.5,70.26a5.5,5.5,0,1,1-5.5,5.5,5.5,5.5,0,0,1,5.5-5.5m0-1a6.5,6.5,0,1,0,6.5,6.5,6.5,6.5,0,0,0-6.5-6.5Z"/><polygon points="29 58.26 19.54 49.59 7.04 52.48 12.36 40.8 5.76 29.81 18.5 31.26 26.92 21.58 29.48 34.15 41.28 39.16 30.12 45.48 29 58.26" fill="#fc0" stroke="#000" stroke-miterlimit="10" stroke-width="2"/><polygon points="66 38.26 54.15 32.26 42.49 38.61 44.54 25.49 34.89 16.37 48 14.26 53.7 2.26 59.75 14.08 72.92 15.79 63.56 25.2 66 38.26" fill="#fc0" stroke="#000" stroke-miterlimit="10" stroke-width="2"/><polygon points="85 50.26 91.3 37.52 84.38 25.11 98.44 27.16 108.11 16.75 110.5 30.76 123.39 36.73 110.81 43.33 109.11 57.44 98.94 47.51 85 50.26" fill="#fc0" stroke="#000" stroke-miterlimit="10" stroke-width="2"/><line x1="41.5" y1="107.76" x2="84.5" y2="111.76" fill="none" stroke="#000" stroke-miterlimit="10" stroke-width="3"/></g></g></svg>