<svg xmlns="http://www.w3.org/2000/svg" viewBox="0 0 137.24 143.04"><g id="Layer_2" data-name="Layer 2"><g id="Layer_1-2" data-name="Layer 1"><circle cx="63" cy="80.04" r="61.5" fill="#cf3"/><path d="M63,20A60,60,0,1,1,3,80,60.07,60.07,0,0,1,63,20m0-3a63,63,0,1,0,63,63A63,63,0,0,0,63,17Z"/><circle cx="38.5" cy="67.54" r="6"/><path d="M38.5,62a5.5,5.5,0,1,1-5.5,5.5A5.5,5.5,0,0,1,38.5,62m0-1a6.5,6.5,0,1,0,6.5,6.5A6.5,6.5,0,0,0,38.5,61Z"/><circle cx="85.5" cy="67.54" r="6"/><path d="M85.5,62a5.5,5.5,0,1,1-5.5,5.5A5.5,5.5,0,0,1,85.5,62m0-1a6.5,6.5,0,1,0,6.5,6.5A6.5,6.5,0,0,0,85.5,61Z"/><polygon points="43 36.42 28.43 34.73 17.89 44.91 16.03 31.53 2.86 26.05 16.28 19.47 18.68 5.91 28.83 15.22 43.49 12.31 36.35 24.65 43 36.42" fill="#fc0" stroke="#000" stroke-miterlimit="10" stroke-width="2"/><polygon points="66.23 49.13 60.15 33.33 43.75 29.1 56.82 18.76 55.47 1.97 69.63 11.38 85.18 5.24 80.86 21.4 91.83 34.39 75.01 34.96 66.23 49.13" fill="#fc0" stroke="#000" stroke-miterlimit="10" stroke-width="2"/><polygon points="81 42.03 95.91 30.23 94.64 11.26 110.47 21.79 128.13 14.72 123 33.03 135.18 47.64 116.18 48.42 106.05 64.52 99.44 46.69 81 42.03" fill="#fc0" stroke="#000" stroke-miterlimit="10" stroke-width="2"/><path d="M81.5,101.54c-1,1.22-8.09,9.79-20,10-14.68.25-22.66-12.44-23-13" fill="none" stroke="#000" stroke-miterlimit="10" stroke-width="3"/></g></g></svg>