<svg xmlns="http://www.w3.org/2000/svg" viewBox="0 0 144.91 143.04"><g id="Layer_2" data-name="Layer 2"><g id="Layer_1-2" data-name="Layer 1"><circle cx="70.67" cy="80.04" r="61.5" fill="#cf3"/><path d="M70.67,20a60,60,0,1,1-60,60,60.07,60.07,0,0,1,60-60m0-3a63,63,0,1,0,63,63,63,63,0,0,0-63-63Z"/><circle cx="46.17" cy="67.54" r="6"/><path d="M46.17,62a5.5,5.5,0,1,1-5.5,5.5,5.5,5.5,0,0,1,5.5-5.5m0-1a6.5,6.5,0,1,0,6.5,6.5,6.5,6.5,0,0,0-6.5-6.5Z"/><circle cx="93.17" cy="67.54" r="6"/><path d="M93.17,62a5.5,5.5,0,1,1-5.5,5.5,5.5,5.5,0,0,1,5.5-5.5m0-1a6.5,6.5,0,1,0,6.5,6.5,6.5,6.5,0,0,0-6.5-6.5Z"/><polygon points="31.67 61.03 21.28 60.98 15.34 69.51 12.18 59.61 2.23 56.6 10.67 50.53 10.46 40.14 18.84 46.3 28.65 42.88 25.39 52.75 31.67 61.03" fill="#fc0" stroke="#000" stroke-miterlimit="10" stroke-width="2"/><polygon points="50.67 36.42 36.1 34.73 25.56 44.91 23.7 31.53 10.53 26.05 23.95 19.47 26.36 5.91 36.5 15.22 51.16 12.31 44.02 24.65 50.67 36.42" fill="#fc0" stroke="#000" stroke-miterlimit="10" stroke-width="2"/><polygon points="73.9 49.13 67.82 33.33 51.42 29.1 64.49 18.76 63.14 1.97 77.3 11.38 92.85 5.24 88.53 21.4 99.5 34.39 82.68 34.96 73.9 49.13" fill="#fc0" stroke="#000" stroke-miterlimit="10" stroke-width="2"/><polygon points="88.67 42.03 103.58 30.23 102.31 11.26 118.14 21.79 135.79 14.72 130.67 33.03 142.85 47.64 123.85 48.42 113.72 64.52 107.11 46.69 88.67 42.03" fill="#fc0" stroke="#000" stroke-miterlimit="10" stroke-width="2"/><path d="M89.17,101.54c-1,1.22-8.09,9.79-20,10-14.68.25-22.66-12.44-23-13" fill="none" stroke="#000" stroke-miterlimit="10" stroke-width="3"/></g></g></svg>