<svg xmlns="http://www.w3.org/2000/svg" viewBox="0 0 134.22 149.77"><g id="Layer_2" data-name="Layer 2"><g id="Layer_1-2" data-name="Layer 1"><circle cx="69.14" cy="86.77" r="61" fill="#009245"/><path d="M69.14,27.77a59,59,0,1,1-59,59,59.06,59.06,0,0,1,59-59m0-4a63,63,0,1,0,63,63,63,63,0,0,0-63-63Z" fill="#231f20"/><ellipse cx="44.14" cy="74.27" rx="5.5" ry="6"/><path d="M44.14,68.77a5.52,5.52,0,0,1,0,11,5.52,5.52,0,0,1,0-11m0-1a6.52,6.52,0,0,0,0,13,6.52,6.52,0,0,0,0-13Z"/><circle cx="90.64" cy="74.27" r="6"/><path d="M90.64,68.77a5.5,5.5,0,1,1-5.5,5.5,5.5,5.5,0,0,1,5.5-5.5m0-1a6.5,6.5,0,1,0,6.5,6.5,6.5,6.5,0,0,0-6.5-6.5Z"/><polygon points="31.14 11.77 33.72 29 49.39 36.65 33.79 44.43 31.36 61.69 19.14 49.27 1.97 52.29 10.01 36.83 1.83 21.43 19.03 24.3 31.14 11.77" fill="#fc0" stroke="#000" stroke-miterlimit="10" stroke-width="2"/><polygon points="77.14 13.77 68.31 26.64 73.91 41.21 58.94 36.79 46.81 46.62 46.39 31.02 33.29 22.52 48 17.3 52.04 2.22 61.55 14.59 77.14 13.77" fill="#fc0" stroke="#000" stroke-miterlimit="10" stroke-width="2"/><polygon points="100.14 29.77 85.57 33.25 80.18 47.23 72.36 34.45 57.4 33.65 67.14 22.27 63.28 7.79 77.12 13.53 89.69 5.39 88.51 20.32 100.14 29.77" fill="#fc0" stroke="#000" stroke-miterlimit="10" stroke-width="2"/><polygon points="111.14 31.77 103.19 46.43 110.76 61.28 94.37 58.26 82.58 70.05 80.39 53.52 65.53 45.95 80.58 38.76 83.18 22.29 94.67 34.38 111.14 31.77" fill="#fc0" stroke="#000" stroke-miterlimit="10" stroke-width="2"/><polygon points="91.14 50.77 99.22 38.63 93.81 25.09 107.84 29.03 119.04 19.7 119.64 34.27 131.97 42.03 118.31 47.1 114.73 61.23 105.69 49.8 91.14 50.77" fill="#fc0" stroke="#000" stroke-miterlimit="10" stroke-width="2"/><path d="M66.67,121.77a23.09,23.09,0,0,1-21-15H88.58a23,23,0,0,1-21.45,15Z" fill="#fff"/><path d="M86.3,108.27a21.49,21.49,0,0,1-19.17,12H66.7a21.55,21.55,0,0,1-18.72-12H86.3m4.34-3h-47a24.51,24.51,0,0,0,23,18h.49a24.54,24.54,0,0,0,23.51-18Z"/></g></g></svg>