<?xml version="1.0" encoding="iso-8859-1"?>
<!-- Generator: Adobe Illustrator 25.4.1, SVG Export Plug-In . SVG Version: 6.00 Build 0)  -->
<svg version="1.1" id="Layer_1" xmlns="http://www.w3.org/2000/svg" xmlns:xlink="http://www.w3.org/1999/xlink" x="0px" y="0px"
	 viewBox="0 0 269.042 213.526" style="enable-background:new 0 0 269.042 213.526;" xml:space="preserve">
<linearGradient id="SVGID_1_" gradientUnits="userSpaceOnUse" x1="89.5423" y1="120.1648" x2="268.5423" y2="120.1648">
	<stop  offset="0" style="stop-color:#FFFFFF"/>
	<stop  offset="1" style="stop-color:#FBB040"/>
</linearGradient>
<path style="fill:url(#SVGID_1_);stroke:#000000;stroke-miterlimit:10;" d="M179.042,34.165c-49.43,0-89.5,38.503-89.5,86
	c0,47.496,40.07,86,89.5,86c10.27,0,20.133-1.665,29.319-4.726c2.02-1.965,3.122-4.203,3.181-7.274
	c0.005-0.277,0.035-0.539,0.076-0.792c-1.872-4.332-2.519-9.118-0.74-12.918c-0.374-1.146-0.338-2.46,0.347-3.813
	c2.05-4.049,5.128-6.45,8.708-7.755c6-4.277,14.176-4.87,20.319-0.678c0.508-0.036,1.047-0.002,1.62,0.135
	c5.455,1.303,10.214-0.997,14.135-4.714c0.156-0.148,0.327-0.268,0.497-0.389c7.648-12.668,12.039-27.376,12.039-43.075
	C268.542,72.668,228.472,34.165,179.042,34.165z"/>
<circle style="fill:#ED2024;stroke:#000000;stroke-miterlimit:10;" cx="123.125" cy="131.896" r="19.5"/>
<circle style="fill:#6ABD45;stroke:#000000;stroke-miterlimit:10;" cx="163.354" cy="88.894" r="20.729"/>
<circle style="fill:#3953A4;stroke:#000000;stroke-miterlimit:10;" cx="234.042" cy="94.665" r="20.5"/>
<circle style="fill:#FFFFFF;stroke:#000000;stroke-miterlimit:10;" cx="188.917" cy="165.04" r="9.875"/>
<ellipse transform="matrix(0.4491 -0.8935 0.8935 0.4491 -53.4553 111.6338)" style="fill:#CA9A2C;stroke:#000000;stroke-miterlimit:10;" cx="63.798" cy="99.165" rx="110.399" ry="4.866"/>
<g>
	<g>
		<path d="M15.895,189.861c-4.897,0.849-6.907,6.064-7.848,10.341c-0.457,2.076-0.808,4.105-1.826,5.902
			c-0.464,0.82-0.97,1.53-1.597,2.002c-0.222,0.167-0.577,0.339-0.737,0.384c-0.063,0.018-0.742,0.101-0.348,0.081
			c-0.079,0.004-0.764-0.055-0.421,0.003c0,1.607,0,3.214,0,4.821c7.995-1.348,14.171-9.003,14.098-17.048
			c-0.02-2.187-2.709-3.27-4.268-1.768c-1.083,1.043-2.165,2.086-3.248,3.129c-1.504,1.45-0.416,4.392,1.768,4.268
			c5.342-0.305,9.555-5.896,7.814-11.127c-0.822-2.47-3.924-2.261-4.821,0c-0.993,2.504-2.399,4.906-4.093,7
			c-0.644,0.796-0.955,1.735-0.517,2.731c0.38,0.865,1.285,1.594,2.285,1.537c3.905-0.222,7.606-2.522,9.27-6.123
			c1.627-3.521,1.213-8.893-3.247-10.026c-3.796-0.964-7.451,1.866-9.167,5.022c-1.668,3.069-2.049,6.413-2.673,9.784
			c-0.31,1.675-0.756,3.531-1.463,4.92c-0.423,0.83-0.796,1.348-1.326,1.91c-0.415,0.44-1.004,0.777-1.637,0.974
			c-3.063,0.953-1.756,5.781,1.329,4.821c6.311-1.963,7.423-8.757,8.414-14.386c0.235-1.336,0.541-2.666,0.989-3.948
			c0.232-0.664,0.349-0.938,0.683-1.552c0.281-0.517,0.646-1.069,0.878-1.321c0.789-0.86,1.328-1.175,2.458-1.397
			c0.02-0.004,0.432,0.036,0.328,0.022c-0.041-0.005,0.103,0.09,0.151,0.167c0.069,0.111,0.095,0.154,0.168,0.453
			c0.029,0.119,0.07,0.448,0.062,0.795c-0.06,2.397-2.76,4.744-5.218,4.883c0.589,1.423,1.179,2.845,1.768,4.268
			c2.277-2.816,4.043-5.84,5.379-9.206c-1.607,0-3.214,0-4.821,0c0.68,2.043-0.861,4.676-2.993,4.798
			c0.589,1.423,1.179,2.845,1.768,4.268c1.083-1.043,2.165-2.086,3.248-3.129c-1.423-0.589-2.845-1.178-4.268-1.768
			c0.053,5.926-4.529,11.232-10.428,12.227c-2.387,0.403-2.386,4.416,0,4.821c5.692,0.966,9.157-4.137,10.47-9.027
			c0.584-2.176,0.824-4.424,1.684-6.527c0.075-0.182,0.329-0.713,0.536-1.076c0.27-0.472,0.517-0.82,0.704-1.018
			c0.443-0.471,0.434-0.461,0.891-0.727c0.202-0.118,0.578-0.239,1.15-0.338c1.331-0.231,2.079-1.864,1.746-3.075
			C18.584,190.201,17.23,189.63,15.895,189.861L15.895,189.861z"/>
	</g>
</g>
</svg>
